<svg width="470" height="404" viewBox="0 0 470 404" fill="none" xmlns="http://www.w3.org/2000/svg">
<path d="M307.246 102L378.12 204H236.87L307.246 102Z" fill="black"/>
<path d="M164.25 102L93.25 -1.23703e-05L234.75 0L164.25 102Z" fill="black"/>
<path d="M164.249 102H236L164.249 204H93L164.249 102Z" fill="black"/>
<path d="M307.249 0H379L307.249 102H236L307.249 0Z" fill="black"/>
<path d="M307.376 102L378.25 204H237L307.376 102Z" fill="black"/>
<path d="M164.249 102H236L164.249 204H93L164.249 102Z" fill="black"/>
<path d="M365.919 402.521V328.873L383.935 361.984V402.521H365.919ZM451.74 361.984L470 328.873V402.521H451.74V361.984ZM449.184 317.308H470L426.785 402.521H409.256L365.919 317.308H386.857L417.777 382.678L449.184 317.308Z" fill="black"/>
<path d="M306.161 403.981H304.701C292.527 403.981 282.302 400.938 274.755 394.73C267.207 388.278 262.825 378.418 262.703 365.149V317.308H280.598V364.662C280.598 373.914 283.519 379.148 288.023 382.191C292.649 385.235 299.101 385.965 306.161 385.965H306.77V403.86L306.161 403.981ZM313.222 403.981H311.761L311.152 403.86V385.965C318.578 385.965 325.152 385.356 329.899 382.191C334.403 379.148 337.325 373.914 337.325 364.662V317.308H355.219V365.149C355.098 378.418 350.715 388.278 343.168 394.73C335.621 400.938 325.395 403.981 313.222 403.981Z" fill="black"/>
<path d="M246.461 402.521H228.688V317.308H246.461V402.521Z" fill="black"/>
<path d="M208.063 402.521H190.29V317.308H208.063V402.521Z" fill="black"/>
<path d="M123.354 385.965H179.716L172.29 402.521H105.459V317.308H123.354V385.965Z" fill="black"/>
<path d="M32.8677 355.897L0 317.308H23.616L44.6757 342.02L32.8677 355.897ZM96.2901 402.521H72.674L51.6144 377.809L63.4224 363.931L96.2901 402.521ZM23.616 402.521H0L72.674 317.308H96.2901L23.616 402.521Z" fill="black"/>
</svg>
