<svg width="1019" height="204" viewBox="0 0 1019 204" fill="none" xmlns="http://www.w3.org/2000/svg">
<path d="M214.246 102L285.12 204H143.87L214.246 102Z" fill="white"/>
<path d="M71.2499 102L0.250009 -1.23703e-05L141.75 0L71.2499 102Z" fill="white"/>
<path d="M71.2491 102H143L71.2491 204H0L71.2491 102Z" fill="white"/>
<path d="M214.249 0H286L214.249 102H143L214.249 0Z" fill="white"/>
<path d="M865.314 163.824V55.0762L891.917 103.968V163.824H865.314ZM992.038 103.968L1019 55.0762V163.824H992.038V103.968ZM988.263 38H1019L955.189 163.824H929.305L865.314 38H896.231L941.888 134.525L988.263 38Z" fill="white"/>
<path d="M777.077 165.981H774.92C756.945 165.981 741.846 161.488 730.701 152.32C719.557 142.794 713.086 128.234 712.906 108.641V38H739.329V107.922C739.329 121.583 743.643 129.312 750.294 133.806C757.124 138.3 766.651 139.378 777.077 139.378H777.975V165.802L777.077 165.981ZM787.502 165.981H785.345L784.446 165.802V139.378C795.411 139.378 805.117 138.48 812.128 133.806C818.778 129.312 823.092 121.583 823.092 107.922V38H849.515V108.641C849.336 128.234 842.865 142.794 831.72 152.32C820.576 161.488 805.477 165.981 787.502 165.981Z" fill="white"/>
<path d="M688.923 163.824H662.68V38H688.923V163.824Z" fill="white"/>
<path d="M632.225 163.824H605.981V38H632.225V163.824Z" fill="white"/>
<path d="M507.143 139.378H590.367L579.402 163.824H480.72V38H507.143V139.378Z" fill="white"/>
<path d="M373.532 94.9804L325 38H359.871L390.968 74.4891L373.532 94.9804ZM467.181 163.824H432.31L401.214 127.335L418.649 106.844L467.181 163.824ZM359.871 163.824H325L432.31 38H467.181L359.871 163.824Z" fill="white"/>
</svg>
